#Comment line ignore any data following # character 
#Hierarchical Translation and Rotation (.htr) file 
[Header]	
#Header keywords are followed by a single value 
FileType HTR		#Single word string
DataType HTRS		#Translation followed by rotation and scale data
FileVersion 1		#integer
NumSegments 25		#integer
NumFrames 5		#integer
DataFrameRate 30		#integer, data frame rate in this file
EulerRotationOrder ZYX
CalibrationUnits mm
RotationUnits Degrees
GlobalAxisofGravity Y
BoneLengthAxis Y
ScaleFactor 1.00
[SegmentNames&Hierarchy]
#CHILD	PARENT
BN_Tick_Root GLOBAL
BN_Torso BN_Tick_Root
BN_L_Leg_Front01 BN_Torso
BN_L_Leg_Rear01 BN_Torso
BN_MetalTop BN_Torso
BN_Neck BN_Torso
BN_R_Leg_Front01 BN_Torso
BN_R_Leg_Rear01 BN_Torso
BN_Sack BN_Torso
BN_L_Leg_Front02 BN_L_Leg_Front01
BN_L_Leg_Front03 BN_L_Leg_Front02
BN_L_Leg_Rear02 BN_L_Leg_Rear01
BN_L_Leg_Rear03 BN_L_Leg_Rear02
BN_Head BN_Neck
BN_Needle BN_Head
BN_R_Leg_Front02 BN_R_Leg_Front01
BN_R_Leg_Front03 BN_R_Leg_Front02
BN_R_Leg_Rear02 BN_R_Leg_Rear01
BN_R_Leg_Rear03 BN_R_Leg_Rear02
BN_SackDef01 BN_Sack
BN_SackDef02 BN_Sack
BN_SackDef03 BN_Sack
BN_SackDef04 BN_Sack
BN_SackDef05 BN_Sack
BN_SackDef06 BN_Sack
[BasePosition]
#SegmentName Tx, Ty, Tz, Rx, Ry, Rz, BoneLength
BN_Tick_Root 0.000000 0.000000 0.000000 -90.000000 0.000000 0.000000 10.000000 
BN_Torso 0.000000 0.000000 0.000000 0.000000 0.000000 0.000000 10.000000 
BN_L_Leg_Front01 0.000000 0.000000 0.000000 0.000000 0.000000 0.000000 10.000000 
BN_L_Leg_Rear01 0.000000 0.000000 0.000000 0.000000 0.000000 0.000000 10.000000 
BN_MetalTop 0.000000 0.000000 0.000000 0.000000 0.000000 0.000000 10.000000 
BN_Neck 0.000000 0.000000 0.000000 0.000000 0.000000 0.000000 10.000000 
BN_R_Leg_Front01 0.000000 0.000000 0.000000 0.000000 0.000000 0.000000 10.000000 
BN_R_Leg_Rear01 0.000000 0.000000 0.000000 0.000000 0.000000 0.000000 10.000000 
BN_Sack 0.000000 0.000000 0.000000 0.000000 0.000000 0.000000 10.000000 
BN_L_Leg_Front02 0.000000 0.000000 0.000000 0.000000 0.000000 0.000000 10.000000 
BN_L_Leg_Front03 0.000000 0.000000 0.000000 0.000000 0.000000 0.000000 10.000000 
BN_L_Leg_Rear02 0.000000 0.000000 0.000000 0.000000 0.000000 0.000000 10.000000 
BN_L_Leg_Rear03 0.000000 0.000000 0.000000 0.000000 0.000000 0.000000 10.000000 
BN_Head 0.000000 0.000000 0.000000 0.000000 0.000000 0.000000 10.000000 
BN_Needle 0.000000 0.000000 0.000000 0.000000 0.000000 0.000000 10.000000 
BN_R_Leg_Front02 0.000000 0.000000 0.000000 0.000000 0.000000 0.000000 10.000000 
BN_R_Leg_Front03 0.000000 0.000000 0.000000 0.000000 0.000000 0.000000 10.000000 
BN_R_Leg_Rear02 0.000000 0.000000 0.000000 0.000000 0.000000 0.000000 10.000000 
BN_R_Leg_Rear03 0.000000 0.000000 0.000000 0.000000 0.000000 0.000000 10.000000 
BN_SackDef01 0.000000 0.000000 0.000000 0.000000 0.000000 0.000000 10.000000 
BN_SackDef02 0.000000 0.000000 0.000000 0.000000 0.000000 0.000000 10.000000 
BN_SackDef03 0.000000 0.000000 0.000000 0.000000 0.000000 0.000000 10.000000 
BN_SackDef04 0.000000 0.000000 0.000000 0.000000 0.000000 0.000000 10.000000 
BN_SackDef05 0.000000 0.000000 0.000000 0.000000 0.000000 0.000000 10.000000 
BN_SackDef06 0.000000 0.000000 0.000000 0.000000 0.000000 0.000000 10.000000 
#Beginning of Data. Separated by tabs
#Fr	Tx	Ty	Tz	Rx	Ry	Rz	SF
[BN_Tick_Root]
110 662.210449 2262.397705 872.685120 0.000000 -0.000000 4.060298 2513.671875
111 701.228333 2264.026367 830.852356 0.000000 -0.000000 3.688003 2511.543945
112 747.111938 2265.957275 781.257263 0.000000 -0.000000 3.445672 2510.597900
113 795.171448 2267.989014 729.074219 0.000000 -0.000000 3.203336 2511.497559
114 840.714355 2269.919922 679.480591 0.000000 -0.000000 2.961013 2514.166016
[BN_Torso]
110 -50.371685 -177.215561 155.195206 86.499084 -0.016218 0.618620 240.890457
111 -91.271164 -172.365570 171.294983 86.583138 -2.554830 0.449581 259.580994
112 -103.509697 -166.154755 180.131927 86.435249 -1.954621 1.620561 266.024750
113 -72.847412 -159.825439 178.043655 86.081459 -0.466654 4.060909 250.100891
114 -24.718185 -153.873901 172.820236 85.657280 1.423881 6.935141 232.712280
[BN_L_Leg_Front01]
110 -68.477791 10.734189 -26.804373 76.459053 83.815437 2.153740 74.316254
111 -68.477791 10.734189 -26.804373 56.593105 75.492142 6.142765 74.316254
112 -68.477791 10.734189 -26.804373 47.005486 73.716713 3.225947 74.316254
113 -68.477791 10.734189 -26.804373 65.631721 78.796478 3.887682 74.316254
114 -68.477791 10.734189 -26.804373 125.837410 87.932755 41.823151 74.316254
[BN_L_Leg_Rear01]
110 -72.133743 -73.994843 -18.268616 154.307709 62.527370 -38.340324 104.939293
111 -72.133743 -73.994843 -18.268616 150.882065 53.950947 -27.228270 104.939293
112 -72.133743 -73.994843 -18.268616 149.873917 49.146793 -18.647881 104.939293
113 -72.133743 -73.994843 -18.268616 158.943420 50.543636 -10.663938 104.939293
114 -72.133743 -73.994843 -18.268616 176.326797 57.139935 -3.514452 104.939293
[BN_MetalTop]
110 0.000008 13.737477 26.403606 93.826477 -18.781815 -91.256996 29.763546
111 0.000008 13.737477 26.403606 90.001801 -12.929772 -89.998505 29.763546
112 0.000008 13.737477 26.403606 97.840927 -25.029499 -92.576805 29.763546
113 0.000008 13.737477 26.403606 93.778603 -18.986223 -91.233894 29.763546
114 0.000008 13.737477 26.403606 89.999191 -12.929616 -90.001762 29.763546
[BN_Neck]
110 0.000014 95.233284 10.002091 -124.074020 -58.741955 111.269897 95.757088
111 0.000014 95.233284 10.002091 -119.439369 -55.415157 110.068565 95.757088
112 0.000014 95.233284 10.002091 -113.615906 -51.102306 108.724045 95.757088
113 0.000014 95.233284 10.002091 -108.042130 -46.774509 107.663666 95.757088
114 0.000014 95.233284 10.002091 -103.885147 -43.447392 107.000977 95.757088
[BN_R_Leg_Front01]
110 68.477768 10.734107 -26.804314 27.233313 69.125656 -118.410088 74.316193
111 68.477768 10.734107 -26.804314 36.861031 67.223526 -90.856911 74.316193
112 68.477768 10.734107 -26.804314 43.816444 68.516800 -74.832298 74.316193
113 68.477768 10.734107 -26.804314 47.936920 79.928635 -80.224327 74.316193
114 68.477768 10.734107 -26.804314 -91.130417 84.866341 84.482651 74.316193
[BN_R_Leg_Rear01]
110 72.133751 -73.994873 -18.268644 -59.150913 34.827881 -43.245663 104.939331
111 72.133751 -73.994873 -18.268644 -58.229591 30.790821 -33.201481 104.939331
112 72.133751 -73.994873 -18.268644 -56.962837 26.121006 -21.030548 104.939331
113 72.133751 -73.994873 -18.268644 -55.397587 21.467642 -11.777493 104.939331
114 72.133751 -73.994873 -18.268644 -54.964024 18.219324 -8.571713 104.939331
[BN_Sack]
110 -0.000000 -78.024918 33.657791 82.830612 11.835140 -89.665863 84.974907
111 -0.000000 -78.024918 33.657791 83.184074 9.906093 -89.586075 84.974907
112 -0.000000 -78.024918 33.657791 83.532944 7.976601 -89.518700 84.974907
113 -0.000000 -78.024918 33.657791 83.879425 5.979146 -89.416664 84.974907
114 -0.000000 -78.024918 33.657791 84.221260 3.981170 -89.327034 84.974907
[BN_L_Leg_Front02]
110 142.805023 -0.000015 -0.000104 -1.511806 1.004943 135.009109 142.805023
111 142.805023 -0.000015 -0.000104 -1.790284 0.753786 120.142387 142.805023
112 142.805023 -0.000015 -0.000104 -1.771813 0.751777 120.524689 142.805023
113 142.805023 -0.000015 -0.000104 -1.800840 0.756691 119.938354 142.805023
114 142.805023 -0.000015 -0.000104 -1.216404 1.154743 149.024612 142.805023
[BN_L_Leg_Front03]
110 124.143021 -0.000045 0.000007 0.354237 -0.033482 175.887695 124.143021
111 124.143021 -0.000045 0.000007 0.352815 0.002270 -179.670288 124.143021
112 124.143021 -0.000045 0.000007 0.352815 0.002270 -179.670288 124.143021
113 124.143021 -0.000045 0.000007 0.352815 0.002266 -179.670837 124.143021
114 124.143021 -0.000045 0.000007 0.353575 -0.064900 171.577454 124.143021
[BN_L_Leg_Rear02]
110 139.939041 0.000075 -0.000022 -0.182494 -0.221400 172.727432 139.939041
111 139.939041 0.000075 -0.000022 -0.101376 -0.232473 150.856628 139.939041
112 139.939041 0.000075 -0.000022 -0.090303 -0.252744 145.307465 139.939041
113 139.939041 0.000075 -0.000022 -0.200662 -0.242679 172.569260 139.939041
114 139.939041 0.000075 -0.000022 -0.500276 -0.004523 -114.696404 139.939041
[BN_L_Leg_Rear03]
110 142.839615 0.000179 -0.000060 0.001408 -0.001878 -163.699738 142.839615
111 142.839615 0.000179 -0.000060 0.001271 -0.001973 -155.568130 142.839615
112 142.839615 0.000179 -0.000060 0.001227 -0.002001 -153.007004 142.839615
113 142.839615 0.000179 -0.000060 0.001407 -0.001879 -163.646194 142.839615
114 142.839615 0.000179 -0.000060 0.001658 -0.001661 -179.892853 142.839615
[BN_Head]
110 57.062447 -0.000030 0.000000 -15.185608 -10.021388 2.868651 57.062447
111 57.062447 -0.000030 0.000000 -12.319759 -10.613727 6.457887 57.062447
112 57.062447 -0.000030 0.000000 -8.602008 -11.250199 11.125587 57.062447
113 57.062447 -0.000030 0.000000 -4.883004 -11.834227 15.792072 57.062447
114 57.062447 -0.000030 0.000000 -2.023718 -12.258316 19.382013 57.062447
[BN_Needle]
110 33.915272 69.677658 0.000002 0.000003 0.000030 87.896805 77.493370
111 33.915272 69.677658 0.000003 0.000003 0.000030 87.896805 77.493370
112 33.915272 69.677658 0.000003 0.000003 0.000030 87.896805 77.493370
113 33.915272 69.677658 0.000004 0.000003 0.000030 87.896805 77.493370
114 33.915272 69.677658 0.000004 0.000003 0.000030 87.896805 77.493370
[BN_R_Leg_Front02]
110 142.804947 -0.000060 0.000060 -19.947170 -17.001638 -169.844391 142.804947
111 142.804947 -0.000060 0.000060 -21.805536 -17.536438 -167.437241 142.804947
112 142.804947 -0.000060 0.000060 -29.873739 1.260480 -120.867577 142.804947
113 142.804947 -0.000060 0.000060 -40.216774 1.538738 -90.741913 142.804947
114 142.804947 -0.000060 0.000060 -64.321793 1.697974 -64.243668 142.804947
[BN_R_Leg_Front03]
110 124.143005 -0.000060 -0.000156 -0.355937 -0.125845 -163.794647 124.143005
111 124.143005 -0.000060 -0.000156 -0.353843 -0.118163 -164.479584 124.143005
112 124.143005 -0.000060 -0.000156 -0.354441 0.002271 179.671906 124.143005
113 124.143005 -0.000060 -0.000156 -0.354441 0.002271 179.671906 124.143005
114 124.143005 -0.000060 -0.000156 -0.354441 0.002271 179.671906 124.143005
[BN_R_Leg_Rear02]
110 139.939011 -0.000149 0.000015 -0.085375 -0.221391 -92.886711 139.939011
111 139.939011 -0.000149 0.000015 -0.110654 -0.206281 -84.927963 139.939011
112 139.939011 -0.000149 0.000015 -0.103376 -0.211901 -87.065643 139.939011
113 139.939011 -0.000149 0.000015 -0.057628 -0.252362 -103.751266 139.939011
114 139.939011 -0.000149 0.000015 0.032998 -0.247038 -129.517365 139.939011
[BN_R_Leg_Rear03]
110 142.839417 0.000075 0.000119 0.002315 -0.000434 111.251976 142.839417
111 142.839417 0.000075 0.000119 0.002335 -0.000234 101.464661 142.839417
112 142.839417 0.000075 0.000119 0.002329 -0.000290 104.180031 142.839417
113 142.839417 0.000075 0.000119 0.002250 -0.000668 123.088112 142.839417
114 142.839417 0.000075 0.000119 0.002090 -0.001069 144.185745 142.839417
[BN_SackDef01]
110 249.782272 -3.760844 42.949425 -128.408218 -44.374973 -11.740845 253.475800
111 249.782272 -3.760844 42.949425 -128.408218 -44.374973 -11.740845 253.475800
112 249.782272 -3.760844 42.949425 -128.408218 -44.374973 -11.740845 253.475800
113 249.782272 -3.760844 42.949425 -128.408218 -44.374973 -11.740845 253.475800
114 249.782272 -3.760844 42.949425 -128.408218 -44.374973 -11.740845 253.475800
[BN_SackDef02]
110 138.789795 -62.131748 45.674385 32.077126 -27.375721 -88.781525 158.773758
111 138.789795 -62.131748 45.674385 32.077126 -27.375721 -88.781525 158.773758
112 138.789795 -62.131748 45.674385 32.077126 -27.375721 -88.781525 158.773758
113 138.789795 -62.131748 45.674385 32.077126 -27.375721 -88.781525 158.773758
114 138.789795 -62.131748 45.674385 32.077126 -27.375721 -88.781525 158.773758
[BN_SackDef03]
110 249.782272 -3.760785 -42.949661 18.144459 44.375008 -11.740894 253.475845
111 249.782272 -3.760785 -42.949661 18.144459 44.375008 -11.740894 253.475845
112 249.782272 -3.760785 -42.949661 18.144459 44.375008 -11.740894 253.475845
113 249.782272 -3.760785 -42.949661 18.144459 44.375008 -11.740894 253.475845
114 249.782272 -3.760785 -42.949661 18.144459 44.375008 -11.740894 253.475845
[BN_SackDef04]
110 138.789780 -62.131645 -45.674473 146.059982 27.375723 -88.781555 158.773743
111 138.789780 -62.131645 -45.674473 146.059982 27.375723 -88.781555 158.773743
112 138.789780 -62.131645 -45.674473 146.059982 27.375723 -88.781555 158.773743
113 138.789780 -62.131645 -45.674473 146.059982 27.375723 -88.781555 158.773743
114 138.789780 -62.131645 -45.674473 146.059982 27.375723 -88.781555 158.773743
[BN_SackDef05]
110 118.790161 46.167137 -63.831196 0.155741 51.314110 90.605110 142.537460
111 118.790161 46.167137 -63.831196 0.155741 51.314110 90.605110 142.537460
112 118.790161 46.167137 -63.831196 0.155741 51.314110 90.605110 142.537460
113 118.790161 46.167137 -63.831196 0.155741 51.314110 90.605110 142.537460
114 118.790161 46.167137 -63.831196 0.155741 51.314110 90.605110 142.537460
[BN_SackDef06]
110 118.790207 46.167194 63.831219 152.058487 -51.314072 90.605019 142.537537
111 118.790207 46.167194 63.831219 152.058487 -51.314072 90.605019 142.537537
112 118.790207 46.167194 63.831219 152.058487 -51.314072 90.605019 142.537537
113 118.790207 46.167194 63.831219 152.058487 -51.314072 90.605019 142.537537
114 118.790207 46.167194 63.831219 152.058487 -51.314072 90.605019 142.537537
